<?xml version="1.0" encoding="utf-8"?>
<!-- Designed by Vexels.com - 2019 All Rights Reserved - https://vexels.com/terms-and-conditions/  -->
<svg version="1.1" id="Capa_1" xmlns="http://www.w3.org/2000/svg" xmlns:xlink="http://www.w3.org/1999/xlink" x="0px" y="0px"
	 viewBox="0 0 1200 1200" enable-background="new 0 0 1200 1200" xml:space="preserve">
<g>
	<path fill="#231F20" d="M982.366,246.817c-0.322,43.144-30.656,49.579-37.538,51.331c-8.202-16.416-19.036-24.604-27.999-27.609
		c-2.764-0.927-5.545,1.266-5.354,4.175c1.376,20.971-8.008,34.983-18.025,42.419c-7.481,5.554-18.116,0.48-19.017-8.794
		c-7.881-81.154,18.91-134.855,31.993-155.68c3.914-6.231,3.876-14.147-0.159-20.301l-32.725-49.907l-17.648-26.914
		c-3.842-5.859-11.811-7.323-17.451-3.167c-20.469,15.081-66.861,54.033-105.621,121.392c-26.021,45.22-56.482,65.1-85.59,76.829
		c-119.376,24.652-164.337,97.286-164.337,97.286l0,0.001c-53.267,45.61-114.93,99.615-150.884,122.813
		c-54.663,35.27-123.796,30.656-151.661,28.949c-3.766-0.231-6.289,3.741-4.56,7.094c26.967,52.295,58.167,85.851,90.321,106.515
		c-24.849,17.571-122.536,101.064-47.54,285.395c2.037,5.005,9.522,3.323,9.185-2.07c-2.036-32.561,2.529-76.184,24.888-105.95
		c2.986-3.975,9.293-1.774,9.042,3.191c-2.127,42.076,4.79,153.924,96.577,263.199c3.125,3.721,9.075,0.467,7.599-4.162
		c-6.023-18.896-9.011-39.418-8.71-54.61c0.872-43.877,27.782-88.026,74.01-94.5c77.467-10.847,124.987,92.159,110.176,156.288
		c-0.994,4.304-2.136,8.684-3.554,12.976c-2.712,8.214,6.496,15.262,13.621,10.357c33.808-23.274,79.094-67.539,90.833-136.713
		c0.729-4.298,6.3-5.625,8.743-2.014c21.845,32.289,46.82,103.722-4.668,198.942c-1.802,3.333,1.224,7.255,4.881,6.262
		c41.849-11.365,136.301-63.448,151.685-205.06C817.84,807.091,683.815,765.005,593.03,778.92
		c-73.2,11.22-124.184,1.934-124.608-33.676c-0.395-33.198,58.593-36.005,97.223-81.81c26.129-30.982,30.211-73.134,29.65-100.107
		c-0.102-4.918-7.053-5.83-8.44-1.11c-8.552,29.105-27.001,75.383-61.469,95.38c-54,31.329-115.362,38.528-102.612,101.875
		c12.751,63.347,92.494,71.816,163.573,60.537c78.892-12.519,139.207,15.454,159.516,55.656
		c19.037,37.684,13.497,105.426-21.204,154.019c-2.38,3.333-7.617,1.881-7.885-2.207c-2.667-40.667-16.876-126.717-98.777-140.22
		c-2.879-0.475-5.52,1.662-5.606,4.579c-0.623,21.229-5.497,52.065-23.32,79.653c-4.193,6.49-14.019,5.142-16.264-2.252
		c-8.35-27.502-33.014-79.077-103.399-103.554c-82.628-28.734-127.085,21.347-139.312,38.313c-1.806,2.505-5.551,2.411-7.188-0.208
		c-11.609-18.57-45.885-82.345-30.227-166.901c0.633-3.416-2.355-6.387-5.79-5.863c-19.155,2.926-42.966,13.091-57.438,24.466
		c-3.266,2.567-8.012-0.119-7.562-4.249c3.279-30.123,11.512-78.782,67.868-125.056c89.998,40.799,181.202-7.179,203.538-20.539
		c2.623-1.569,3.335-4.996,1.635-7.537c-44.976-67.234-106.407-52.687-139.225-42.592c-19.606,6.031-35.694,5.384-47.692,3.804
		c-5.311-0.699-7.113,6.815-2.089,8.673c18.217,6.737,45.842,8.122,69.895,3.521c27.806-5.319,45.729,3.006,55.668,12.43
		c3.02,2.863,1.738,7.926-2.225,9.196c-121.422,38.916-180.944-21.729-203.479-53.715c-2.606-3.699,0.738-8.625,5.143-7.59
		c19.098,4.487,59.143,5.301,121.071-34.649c75.376-48.626,122.429-27.293,142.056-14.581c5.218,3.38,12.125,2.435,16.154-2.3
		c28.283-33.235,29.266-68.867,22.218-95.394c-1.11-4.177-6.815-4.676-8.725-0.799c-1.895,3.848-3.779,7.107-5.631,9.857
		c-7.792,11.577-25.941,3.278-22.204-10.167c29.224-100.003,166.504-112.984,166.504-112.984
		c-66.974,34.448-57.836,79.396-55.75,127.88c0.974,22.646,0.489,45.333-1.68,66.949c-0.459,4.577,5.871,6.279,7.736,2.074
		c30.427-68.575-9.263-133.842,77.732-179.858c95.105-50.305,102.899-114.356,108.396-142.585s21.115-42.072,29.625-49.08
		c1.11,10.66,4.903,17.519,8.621,21.994c2.514,3.026,7.506,2.043,8.615-1.73c3.336-11.35,10.502-19.957,16.733-25.675l27.573,40.385
		c3.896,5.706,4.37,13.098,1.149,19.21c-9.74,18.482-29.31,62.978-31.672,125.738c-3.325,88.3,29.41,76.184,53.751,68.763
		l-0.003-0.002c27.593-6.057,59.776-24.724,66.401-15.133c11.617,16.818-12.087,45.207-73.863,121.621
		c-51.774,64.042-69.952,148.324-74.576,185.438c-0.636,5.104-7.447,6.504-9.959,2.016c-11.821-21.117-18.824-44.401-22.506-61.729
		c-1.014-4.771-7.862-4.669-8.743,0.128c-20.687,112.639,29.528,179.473,55.075,205.247c5.289,5.336,0.766,14.212-6.673,13.158
		c-17.469-2.476-44.169-13.438-72.354-51.58c-20.375-27.573-35.643-41.708-49.635-50.022c-4.542-2.698-9.167,3.469-5.316,7.085
		c44.558,41.845,48.377,105.702,108.327,135.425c54.667,27.104,99.939,1.912,117.353-13.981c4.17-3.806,2.889-10.603-2.297-12.835
		c-33.691-14.5-53.887-34.354-66.206-51.256c-4.579-6.282,1.866-14.783,9.061-11.841c6.651,2.72,13.549,4.658,19.853,5.913
		c6.501,1.295,11.491-5.641,8.243-11.421c-91.732-163.264,74.396-306.579,108.268-374.975
		c29.394-59.354-6.839-105.546-24.38-122.268C986.669,241.399,982.393,243.226,982.366,246.817z"/>
	<path fill="#231F20" d="M704.225,320.895c-38.904-3.19-45.101,27.773-45.448,45.849c-0.14,7.299,5.933,13.208,13.23,12.989
		c38.12-1.145,43.657-28.597,44.043-45.742C716.203,327.186,711.009,321.451,704.225,320.895z"/>
</g>
</svg>
